<svg id="Layer_1" xmlns="http://www.w3.org/2000/svg" viewBox="0 0 788 788"><style>.st1{fill:#333}</style><path fill="#d83535" d="M394 779H10V10h384v27L184 180l-4 318 44 112 97 102 74 30z"/><path class="st1" d="M390 779h384V10H390l1 38 61 11 107 66 41 55 4 318-44 112-97 102-74 30z"/><g id="Hair"><path class="st1" d="M557.2 195.9S549 275 557 292s52 36.2 52 72.1V217l-35-45-16.8 23.9zM231.8 195.9s8.2 79.1.2 96.1-52 36.2-52 72.1V217l35-45 16.8 23.9z"/><path class="st1" d="M463.4 173.4l2.5-2.4 4.9-5c3.2-3.4 6.3-7 9.1-10.7a83 83 0 0 0 13.5-24.3c1.4-4.4 2.2-8.9 2-13.5a30.6 30.6 0 0 0-7.6-18.8c-1.5-1.8-3.3-3.4-5.1-5-3.7-3-7.9-5.6-12.2-7.7a50.9 50.9 0 0 1 23.9 16.8c2.9 4.2 4.8 9.1 5.6 14.3.7 5.1.4 10.4-.7 15.4a87.5 87.5 0 0 1-11.9 27.9 150.9 150.9 0 0 1-12.6 17.5C560 188.9 609 217 609 217 609 60 394.5 48 394.5 48 186 67.9 180 195.2 180 195.2V217c112.2-42.6 207.9-48.2 280.3-40.8l.6-.5 2.5-2.3z"/></g><path class="st1" d="M559.5 374c-1.2 0-2.4-.2-3.6-.7l-44.4-17.9-66.2 13.4a9.6 9.6 0 0 1-11.2-7.4 9.6 9.6 0 0 1 7.4-11.2l71.8-14.6 49.6 20.1c4.9 2 7.2 7.5 5.2 12.4a9 9 0 0 1-8.6 5.9zM467 609.5c-2.4 0-4.9-.9-6.7-2.8-21.4-21.4-44-32-67.2-31.4-37.4.9-64.8 30.8-65 31.1a9.5 9.5 0 1 1-14.1-12.7c1.3-1.5 32.9-36.1 78.5-37.3 28.6-.8 56 11.7 81.3 37a9.5 9.5 0 0 1 0 13.4 10 10 0 0 1-6.8 2.7zM344 410.5c-1.6 0-3.2-.6-4.4-1.7-16.9-15.7-34.1-23.2-51.2-22.2-25.2 1.5-42.2 21.4-42.4 21.6a6.5 6.5 0 1 1-10-8.3c.8-1 20.6-24.3 51.4-26.2 20.8-1.3 41.3 7.3 61 25.6a6.5 6.5 0 0 1 .3 9.2c-1.2 1.3-3 2-4.7 2zM292.7 437.6a54 54 0 0 1-14.1-2c-12.6-3.5-21.4-10.4-21.8-10.6a5 5 0 0 1-.8-7 5 5 0 0 1 7-.8c1.3 1 30.1 23 54.5.3a5 5 0 0 1 7.1.3 5 5 0 0 1-.3 7.1 46.2 46.2 0 0 1-31.6 12.7z"/><path class="st1" d="M290 391c4.4 0 8 3.6 8 8s-3.6 8-8 8-8-3.6-8-8 3.6-8 8-8m0-11a19 19 0 1 0 0 38 19 19 0 0 0 0-38zM344.5 374a10 10 0 0 1-3.8-.8l-80.4-35-31.7 20.3a9.5 9.5 0 0 1-13.1-2.9 9.5 9.5 0 0 1 2.9-13.1l40.3-25.7 89.6 39a9.5 9.5 0 0 1-3.8 18.2zM450.1 417c-1.2 0-2.4-.3-3.5-1a6.6 6.6 0 0 1-2-9 79.2 79.2 0 0 1 47.7-32.5c20.5-3.9 41.9 2 63.7 17.7a6.5 6.5 0 0 1 1.5 9.1 6.5 6.5 0 0 1-9.1 1.5c-18.8-13.5-36.8-18.7-53.6-15.5a66.4 66.4 0 0 0-39.3 26.7 6.3 6.3 0 0 1-5.4 3zM499.4 437.7c-2.6 0-5.3-.2-8-.6-12.9-1.9-22.5-7.6-22.9-7.8a5 5 0 1 1 5.2-8.6c1.3.8 32.7 19 54.1-6.6a5 5 0 0 1 7-.6 5 5 0 0 1 .6 7 45.4 45.4 0 0 1-36 17.2z"/><path class="st1" d="M498.1 391.4c4 0 7.4 3 7.9 7a7.9 7.9 0 0 1-6.9 8.9l-1 .1a8 8 0 0 1-7.9-7 7.9 7.9 0 0 1 6.9-8.9l1-.1m0-11l-2.4.2c-5 .6-9.5 3.2-12.6 7.2a19 19 0 1 0 15-7.4z"/><g id="Mouth"><path class="st1" d="M336 615.5c-1.5 0-3-.6-4-1.8a5.5 5.5 0 0 1 .3-7.8c1.6-1.5 38.6-35.1 63.2-17.7a37 37 0 0 1 15.4-4c10.4-.5 26.6 2.9 45.1 21.9a5.5 5.5 0 0 1-7.9 7.7c-29.2-30.1-49.4-14.7-49.6-14.5l-3.7 3-3.5-3.3c-16.8-16-51.1 14.7-51.5 15.1a6.2 6.2 0 0 1-3.8 1.4zM395.3 675.8h-.9c-36.4-.6-61.9-38.2-63-39.8a5.5 5.5 0 0 1 9.1-6.1c.3.5 23.5 34.4 54.1 34.9 18.3.3 36.1-11.5 52.9-35 1.8-2.5 5.2-3 7.7-1.3 2.5 1.8 3 5.2 1.3 7.7-18.8 26.3-39.4 39.6-61.2 39.6z"/><path class="st1" d="M395 634.8c-6.5 0-12.1-3.4-14.9-5.3H356c-3 0-5.5-2.5-5.5-5.5s2.5-5.5 5.5-5.5h28l1.5 1.3c1.5 1.2 6.3 4.4 10.2 4 1.2-.1 2.9-.6 4.8-3.1l1.6-2.2H436c3 0 5.5 2.5 5.5 5.5s-2.5 5.5-5.5 5.5h-28.5c-2.9 3-6.5 4.8-10.5 5.2l-2 .1z"/></g><circle class="st1" cx="484" cy="515" r="10"/><path class="st1" d="M395.7 548.6c-1.5 0-3.1-.1-4.6-.3a42.4 42.4 0 0 1-25.4-14.7c-4.3 3.9-9 5.8-14.1 5.8-11.3 0-19.1-10-20-11.1a5.5 5.5 0 0 1 1.1-7.7 5.5 5.5 0 0 1 7.7 1.1c1.4 1.9 6.2 6.7 11.2 6.7 3.3 0 6.7-2.3 10-6.7l4.9-6.5 4.2 7c.1.1 8.4 13.5 21.9 15.3 9 1.2 18.6-3 28.6-12.4l3-2.8 3.6 2.1c1.3.7 12.9 7.1 19.7-2.5 1.8-2.5 5.2-3 7.7-1.3 2.5 1.8 3 5.2 1.3 7.7-8.8 12.2-22.2 10.8-30.5 7.4a47.1 47.1 0 0 1-30.3 12.9z"/><path class="st1" d="M394.3 751.1c-41-3.2-68.8-23.6-69.9-24.4l-.1-.1c-80.3-61.8-117.8-128.7-135.1-174-18.7-48.8-18.7-83.2-18.6-85.6V217A148 148 0 0 1 232 93.3l2.2-1.7c.7-.5 67.1-52.8 160.9-53.1l.1 19a262 262 0 0 0-151.4 50.8A128.3 128.3 0 0 0 189.5 217v250.1c0 .3-.2 33.2 17.7 79.5 16.5 42.7 52.2 106 128.5 164.7 1.1.8 25.4 18 60 20.7l-1.4 19.1z"/><path class="st1" d="M396.3 751.1l-1.5-18.9a127.4 127.4 0 0 0 60-20.7c76.3-58.8 112-122 128.5-164.7 17.9-46.3 17.7-79.2 17.7-79.6V217c0-66-38-96-54.2-108.8l-2.3-1.8a262 262 0 0 0-149.1-49l.1-19c93.8.3 160.2 52.6 160.9 53.1l2.2 1.7C575.4 106.5 620 141.7 620 217v249.9c0 2.3 0 36.8-18.6 85.6-17.3 45.3-54.8 112.2-135.1 174l-.1.1c-1.2.9-29 21.2-69.9 24.5z"/><path class="st1" d="M394 670s23 50 65 50l-65 22v-72z"/><path class="st1" d="M394 742v-72s23 50 65 50M394 742v-72s-23 50-65 50"/><path class="st1" d="M788 788H0V0h788v788zM19 769h750V19H19v750z"/></svg>